<?xml version="1.0" encoding="utf-8"?>
<!-- Generator: Adobe Illustrator 27.5.0, SVG Export Plug-In . SVG Version: 6.00 Build 0)  -->
<svg version="1.1" xmlns="http://www.w3.org/2000/svg" xmlns:xlink="http://www.w3.org/1999/xlink" x="0px" y="0px"
	 viewBox="0 0 500 500" style="enable-background:new 0 0 500 500;" xml:space="preserve">
<g id="Background_Simple">
	<g>
		<path style="fill:#C6FF00;" d="M329.22,43.771c0,0-73.45-21.628-145.978,22.117c-72.528,43.745-109.517,125.324-141.25,190.776
			c-31.733,65.452-14.139,129.577,40.828,156.509c54.968,26.932,92.766-18.609,170.165-24.54
			c77.4-5.931,98.142,3.716,162.634-41.601s76.757-145.459,26.588-216.645S329.22,43.771,329.22,43.771z"/>
		<path style="opacity:0.8;fill:#FFFFFF;" d="M329.22,43.771c0,0-73.45-21.628-145.978,22.117
			c-72.528,43.745-109.517,125.324-141.25,190.776c-31.733,65.452-14.139,129.577,40.828,156.509
			c54.968,26.932,92.766-18.609,170.165-24.54c77.4-5.931,98.142,3.716,162.634-41.601s76.757-145.459,26.588-216.645
			S329.22,43.771,329.22,43.771z"/>
	</g>
</g>
<g id="Plants">
	<g>
		<path style="fill:#C6FF00;" d="M71.925,424.653c0,0-24.77-52.758-19.382-54.287c5.388-1.529,16.661,6.881,16.661,6.881
			s-33.109-88.694-24.539-95.576c8.571-6.881,24.574,28.29,24.574,28.29s-17.088-54.287-15.079-74.932s23.72-0.765,23.72-0.765
			s-17.39-74.167-1.245-77.99c16.146-3.823,15.612,84.871,15.612,84.871s5.299-63.462,11.771-45.876
			c6.472,17.586-7.13,76.461-7.13,76.461s8.873-19.88,13.799-1.529c4.925,18.351-9.798,92.517-9.798,92.517
			s12.518-12.234,13.692,3.058c1.174,15.292-25.925,62.698-25.925,62.698l-15.328,1.529L71.925,424.653z"/>
		<path style="opacity:0.6;fill:#FFFFFF;" d="M71.925,424.653c0,0-24.77-52.758-19.382-54.287
			c5.388-1.529,16.661,6.881,16.661,6.881s-33.109-88.694-24.539-95.576c8.571-6.881,24.574,28.29,24.574,28.29
			s-17.088-54.287-15.079-74.932s23.72-0.765,23.72-0.765s-17.39-74.167-1.245-77.99c16.146-3.823,15.612,84.871,15.612,84.871
			s5.299-63.462,11.771-45.876c6.472,17.586-7.13,76.461-7.13,76.461s8.873-19.88,13.799-1.529
			c4.925,18.351-9.798,92.517-9.798,92.517s12.518-12.234,13.692,3.058c1.174,15.292-25.925,62.698-25.925,62.698l-15.328,1.529
			L71.925,424.653z"/>
		<path style="fill:none;stroke:#263238;stroke-linecap:round;stroke-linejoin:round;stroke-miterlimit:10;" d="M77.212,426.947
			c0,0-20.644-36.701-16.821-43.583c3.823-6.882,15.292,9.175,15.292,9.175s-25.997-64.992-22.174-71.108
			c3.823-6.117,16.057,20.644,16.057,20.644s-4.588-89.459,3.058-86.4c7.646,3.058,8.411,45.876,8.411,45.876
			s-4.588-101.693,2.294-98.634c6.882,3.059,6.117,116.22,6.117,116.22s13.763-43.582,16.057-23.703
			c2.294,19.88-17.586,73.402-17.586,73.402s19.115-42.053,21.409-19.88c2.294,22.174-15.292,63.462-15.292,63.462
			s6.881-16.821,6.881-7.646c0,9.175-5.352,20.644-5.352,20.644"/>
	</g>
</g>
<g id="Calendar">
	<g id="XMLID_225_">
		
			<polygon id="XMLID_224_" style="fill:#263238;stroke:#263238;stroke-linecap:round;stroke-linejoin:round;stroke-miterlimit:10;" points="
			51.427,383.458 38.258,426.859 73.927,426.859 87.497,383.694 		"/>
		<g id="XMLID_223_">
			
				<polygon id="XMLID_205_" style="fill:#FFFFFF;stroke:#263238;stroke-linecap:round;stroke-linejoin:round;stroke-miterlimit:10;" points="
				134.605,426.792 60.271,426.792 51.427,383.458 125.76,383.458 			"/>
			<g id="XMLID_207_">
				
					<polygon id="XMLID_206_" style="fill:none;stroke:#263238;stroke-linecap:round;stroke-linejoin:round;stroke-miterlimit:10;" points="
					126.941,419.458 64.941,419.458 60.315,396.792 122.315,396.792 				"/>
				
					<line id="XMLID_208_" style="fill:none;stroke:#263238;stroke-linecap:round;stroke-linejoin:round;stroke-miterlimit:10;" x1="65.644" y1="396.876" x2="70.234" y2="419.363"/>
				
					<line id="XMLID_209_" style="fill:none;stroke:#263238;stroke-linecap:round;stroke-linejoin:round;stroke-miterlimit:10;" x1="71.33" y1="396.876" x2="75.92" y2="419.363"/>
				
					<line id="XMLID_210_" style="fill:none;stroke:#263238;stroke-linecap:round;stroke-linejoin:round;stroke-miterlimit:10;" x1="77.017" y1="396.876" x2="81.606" y2="419.363"/>
				
					<line id="XMLID_211_" style="fill:none;stroke:#263238;stroke-linecap:round;stroke-linejoin:round;stroke-miterlimit:10;" x1="82.703" y1="396.876" x2="87.293" y2="419.363"/>
				
					<line id="XMLID_212_" style="fill:none;stroke:#263238;stroke-linecap:round;stroke-linejoin:round;stroke-miterlimit:10;" x1="88.389" y1="396.876" x2="92.979" y2="419.363"/>
				
					<line id="XMLID_213_" style="fill:none;stroke:#263238;stroke-linecap:round;stroke-linejoin:round;stroke-miterlimit:10;" x1="94.076" y1="396.876" x2="98.665" y2="419.363"/>
				
					<line id="XMLID_214_" style="fill:none;stroke:#263238;stroke-linecap:round;stroke-linejoin:round;stroke-miterlimit:10;" x1="99.762" y1="396.876" x2="104.352" y2="419.363"/>
				
					<line id="XMLID_215_" style="fill:none;stroke:#263238;stroke-linecap:round;stroke-linejoin:round;stroke-miterlimit:10;" x1="105.448" y1="396.876" x2="110.038" y2="419.363"/>
				
					<line id="XMLID_216_" style="fill:none;stroke:#263238;stroke-linecap:round;stroke-linejoin:round;stroke-miterlimit:10;" x1="111.135" y1="396.876" x2="115.724" y2="419.363"/>
				
					<line id="XMLID_217_" style="fill:none;stroke:#263238;stroke-linecap:round;stroke-linejoin:round;stroke-miterlimit:10;" x1="116.821" y1="396.876" x2="121.411" y2="419.363"/>
				
					<line id="XMLID_218_" style="fill:none;stroke:#263238;stroke-linecap:round;stroke-linejoin:round;stroke-miterlimit:10;" x1="61.371" y1="401.271" x2="123.017" y2="401.271"/>
				
					<line id="XMLID_219_" style="fill:none;stroke:#263238;stroke-linecap:round;stroke-linejoin:round;stroke-miterlimit:10;" x1="62.294" y1="405.794" x2="123.94" y2="405.794"/>
				
					<line id="XMLID_220_" style="fill:none;stroke:#263238;stroke-linecap:round;stroke-linejoin:round;stroke-miterlimit:10;" x1="63.218" y1="410.317" x2="124.863" y2="410.317"/>
				
					<line id="XMLID_221_" style="fill:none;stroke:#263238;stroke-linecap:round;stroke-linejoin:round;stroke-miterlimit:10;" x1="64.141" y1="414.84" x2="125.786" y2="414.84"/>
			</g>
			<polygon id="XMLID_222_" style="fill:#263238;" points="87.322,392.87 59.794,392.87 59.346,390.673 86.873,390.673 			"/>
		</g>
	</g>
</g>
<g id="Character_1_">
	<g>
		<path style="fill:#FFFFFF;stroke:#263238;stroke-linecap:round;stroke-linejoin:round;stroke-miterlimit:10;" d="M462.999,316.002
			h-89.657c-8.492,0-16.157,6.884-17.119,15.377l-11.019,97.228h105.034L462.999,316.002z"/>
		<path style="fill:#263238;stroke:#263238;stroke-linecap:round;stroke-linejoin:round;stroke-miterlimit:10;" d="M463.472,316.002
			L463.472,316.002c-7.055,0-13.423,5.719-14.222,12.774l-11.314,99.83h25.549l11.314-99.83
			C475.598,321.722,470.527,316.002,463.472,316.002z"/>
	</g>
	<g>
		<g>
			<g>
				
					<path id="XMLID_173_" style="fill:#C6FF00;stroke:#263238;stroke-linecap:round;stroke-linejoin:round;stroke-miterlimit:10;" d="
					M344.291,286.794c0,0-7.602,5.834-20.329,11.137c-12.728,5.303-17.855,6.894-17.855,6.894l3.536,121.8h92.455
					c0,0-11.844-76.368-11.844-102.001c0-25.633,1.061-30.583,1.061-30.583l-30.406-7.778L344.291,286.794z"/>
				<g>
					
						<path id="XMLID_176_" style="fill:#263238;stroke:#263238;stroke-linecap:round;stroke-linejoin:round;stroke-miterlimit:10;" d="
						M334.214,291.921c0,0-4.596,31.113-5.127,62.403c-0.53,31.29,5.48,73.009,5.48,73.009h-31.113h-36.593
						c0,0,12-20.912,17.866-50.708c4.987-25.329,9.004-68.264,10.065-68.794C295.854,307.3,331.74,294.042,334.214,291.921z"/>
					<path id="XMLID_174_" style="fill:none;stroke:#616161;stroke-linecap:round;stroke-linejoin:round;stroke-miterlimit:10;" d="
						M303.455,427.333c0,0-6.894-46.669-6.541-57.63c0.353-10.96,2.121-48.084,2.121-48.084"/>
				</g>
				
					<path id="XMLID_178_" style="fill:#263238;stroke:#263238;stroke-linecap:round;stroke-linejoin:round;stroke-miterlimit:10;" d="
					M372.222,288.738c0,0-8.662,39.775-9.369,72.479c-0.707,32.704-2.958,66.292-2.958,66.292h54.754c0,0,0.707-29.875,0-40.129
					c-0.707-10.253-0.707-8.132-0.707-8.132l21.213,5.48c0,0-13.612-65.585-16.087-72.833c-2.475-7.248-1.237-9.546-2.828-10.784
					C414.649,299.875,372.222,288.738,372.222,288.738z"/>
			</g>
			<g id="XMLID_203_">
				
					<path id="XMLID_204_" style="fill:#FFFFFF;stroke:#263238;stroke-linecap:round;stroke-linejoin:round;stroke-miterlimit:10;" d="
					M273.328,400.294c0,0,2.535,3.928,4.963,6.007c2.428,2.078,7.639,0.986,10.406,3.838c2.767,2.851-0.256,11.515-3.758,14.544
					c-5.973,5.165-2.823-10.521-2.823-10.521s-3.525,2.466-6.92,3.25c-3.395,0.784-12.15-1.881-15.077-2.007
					c-2.927-0.126-6.966-0.686-8.556-3.944c-1.591-3.258,8.12-7.189,12.421-8.75C268.285,401.15,273.328,400.294,273.328,400.294z"
					/>
				
					<path id="XMLID_191_" style="fill:#FFFFFF;stroke:#263238;stroke-linecap:round;stroke-linejoin:round;stroke-miterlimit:10;" d="
					M254.806,404.89c0,0-3.064-0.933-5.108,1.697c-2.044,2.63-6.046,14.517-4.828,16.801c1.218,2.284,4.202-0.921,5.638-4.693
					c1.435-3.772,2.44-5.188,2.44-5.188s1.583,0.769,2.687-1.286C256.74,410.166,257.874,407.068,254.806,404.89z"/>
				
					<path id="XMLID_202_" style="fill:#FFFFFF;stroke:#263238;stroke-linecap:round;stroke-linejoin:round;stroke-miterlimit:10;" d="
					M260.474,402.822c0,0-3.244-1.994-6.052,1.027c-2.808,3.021-0.879,15.612,0.606,19.47c1.485,3.858,4.309,3.379,4.729,0.959
					c0.419-2.42,0.903-14.246,1.056-17.012S260.474,402.822,260.474,402.822z"/>
				
					<path id="XMLID_200_" style="fill:#FFFFFF;stroke:#263238;stroke-linecap:round;stroke-linejoin:round;stroke-miterlimit:10;" d="
					M266.469,401.458c0,0-3.27-2.143-6.052,1.027c-2.783,3.17-0.725,16.52,0.801,20.619c1.526,4.1,4.35,3.62,4.746,1.062
					c0.396-2.558,0.763-15.073,0.888-18C266.979,403.239,266.469,401.458,266.469,401.458z"/>
				
					<path id="XMLID_199_" style="fill:#FFFFFF;stroke:#263238;stroke-linecap:round;stroke-linejoin:round;stroke-miterlimit:10;" d="
					M275.254,403.08c0,0-2.337-5.207-6.135-4.355c-3.799,0.852-4.994,6.036-4.299,13.805c0.696,7.769,2.161,13.954,4.281,14.217
					c2.12,0.263,4.427-4.487,4.846-10.578c0.419-6.09,1.048-9.725,1.048-9.725"/>
			</g>
			<g id="XMLID_188_">
				
					<rect id="XMLID_185_" x="300.536" y="348.57" style="fill:#C6FF00;stroke:#263238;stroke-linecap:round;stroke-linejoin:round;stroke-miterlimit:10;" width="23.566" height="36.176"/>
				
					<rect id="XMLID_186_" x="309.632" y="338.027" style="fill:#FFFFFF;stroke:#263238;stroke-linecap:round;stroke-linejoin:round;stroke-miterlimit:10;" width="4.341" height="16.744"/>
				
					<rect id="XMLID_187_" x="306.325" y="358.7" style="fill:#FFFFFF;stroke:#263238;stroke-linecap:round;stroke-linejoin:round;stroke-miterlimit:10;" width="10.129" height="13.23"/>
				
					<line id="XMLID_189_" style="fill:none;stroke:#263238;stroke-linecap:round;stroke-linejoin:round;stroke-miterlimit:10;" x1="304.671" y1="375.858" x2="318.521" y2="375.858"/>
				
					<line id="XMLID_190_" style="fill:none;stroke:#263238;stroke-linecap:round;stroke-linejoin:round;stroke-miterlimit:10;" x1="302.604" y1="378.752" x2="320.382" y2="378.752"/>
			</g>
		</g>
		<g>
			
				<path id="XMLID_171_" style="fill:#C6FF00;stroke:#263238;stroke-linecap:round;stroke-linejoin:round;stroke-miterlimit:10;" d="
				M341.816,281.667c0,0-7.602,5.127-9.016,9.192c-1.414,4.066-7.248,21.39-9.546,27.931c-2.298,6.541-15.38,12.198-13.612,13.435
				c1.768,1.237,18.915,2.828,18.915,2.828s3.889,15.203,4.773,19.092c0.884,3.889,6.187,15.733,6.187,15.733
				s15.733-18.915,18.208-24.042c2.475-5.127,5.834-9.9,5.834-9.9s6.718,1.591,10.96,2.298c4.243,0.707,15.91,1.768,15.38-0.177
				c-0.53-1.945-6.364-10.43-8.662-18.738c-2.298-8.309-0.884-26.517-3.712-33.588c-2.828-7.071-9.016-8.132-11.137-8.662
				C364.267,276.541,344.998,278.662,341.816,281.667z"/>
			<g>
				
					<path id="XMLID_172_" style="fill:#FFFFFF;stroke:#263238;stroke-linecap:round;stroke-linejoin:round;stroke-miterlimit:10;" d="
					M339.341,276.187c0,0,2.298,12.905,1.944,23.335c-0.353,10.43-4.066,33.765-3.889,45.786
					c0.177,12.021,1.945,23.865,1.945,23.865s17.324-23.865,23.688-43.311c6.364-19.446,8.132-36.063,8.132-37.3
					c0-1.237,0.353-30.052,0.353-30.052S353.13,277.778,339.341,276.187z"/>
				<path style="fill:#263238;stroke:#263238;stroke-linecap:round;stroke-linejoin:round;stroke-miterlimit:10;" d="
					M371.366,270.74c0.078-6.475,0.149-12.23,0.149-12.23s-18.385,19.269-32.174,17.678c0,0,0.647,3.633,1.201,8.602
					c2.145,1.352,4.199,2.373,5.917,2.716c6.383,1.277,13.532-2.298,18.383-8.426C366.628,276.824,369.035,273.739,371.366,270.74z"
					/>
			</g>
		</g>
		<g>
			
				<ellipse id="XMLID_167_" style="fill:#263238;stroke:#263238;stroke-linecap:round;stroke-linejoin:round;stroke-miterlimit:10;" cx="383.978" cy="194.781" rx="17.589" ry="17.413"/>
			
				<path id="XMLID_156_" style="fill:#263238;stroke:#263238;stroke-linecap:round;stroke-linejoin:round;stroke-miterlimit:10;" d="
				M312.753,225.195c0,0-9.447-2.553-10.979-7.66c-1.532-5.106,4.085-22.979,22.468-32.17c18.383-9.191,35.234-4.085,42.638-2.043
				c7.404,2.043,12.766,5.872,17.617,19.404c4.851,13.532,5.106,24,3.575,29.106c-1.532,5.106-3.319,8.936-3.319,8.936
				s-9.447,1.021-12-2.808c-2.553-3.83-1.532-22.979-12.511-27.574c-10.979-4.596-31.915-2.042-37.021,2.553
				C318.114,217.536,312.753,225.195,312.753,225.195z"/>
			<g>
				
					<path id="XMLID_157_" style="fill:#FFFFFF;stroke:#263238;stroke-linecap:round;stroke-linejoin:round;stroke-miterlimit:10;" d="
					M311.221,221.876c0,0,2.298,14.553,2.298,22.468s6.383,18.893,9.702,21.957c3.319,3.064,14.298,13.532,20.681,14.808
					c6.383,1.277,13.532-2.298,18.383-8.425c4.851-6.128,14.298-18.383,14.298-18.383s7.149,1.021,9.702-6.383
					c2.553-7.404,1.277-15.83-3.064-16.851c-4.34-1.021-7.404,4.085-7.404,4.085s-3.574-13.787-8.17-20.681
					s-6.638-9.957-6.638-9.957l8.473-10.591c0.39-0.488,0.291-1.204-0.217-1.567l0,0c-0.476-0.34-1.134-0.244-1.493,0.218
					l-8.294,10.664c0,0-16.34-2.808-30.638,4.34C314.54,214.727,311.221,221.876,311.221,221.876z"/>
				
					<line id="XMLID_164_" style="fill:none;stroke:#263238;stroke-linecap:round;stroke-linejoin:round;stroke-miterlimit:10;" x1="363.678" y1="236.252" x2="361.381" y2="239.316"/>
				<path id="XMLID_158_" style="fill:none;stroke:#263238;stroke-linecap:round;stroke-linejoin:round;stroke-miterlimit:10;" d="
					M332.157,253.791c0,0,0.511,1.532,3.83,2.298c3.319,0.766,6.383-0.511,8.426-3.064"/>
				<path id="XMLID_160_" style="fill:none;stroke:#263238;stroke-linecap:round;stroke-linejoin:round;stroke-miterlimit:10;" d="
					M335.986,261.961c0,0,9.447,2.809,17.617-5.362c0,0-2.298,9.702-6.894,11.489c-4.596,1.787-4.851-3.064-4.851-3.064
					L335.986,261.961z"/>
				
					<path id="XMLID_161_" style="fill:none;stroke:#263238;stroke-width:2;stroke-linecap:round;stroke-linejoin:round;stroke-miterlimit:10;" d="
					M345.178,242.557c0,0,6.383-6.638,16.085-4.34"/>
				
					<path id="XMLID_159_" style="fill:none;stroke:#263238;stroke-width:2;stroke-linecap:round;stroke-linejoin:round;stroke-miterlimit:10;" d="
					M328.582,242.046c0,0-5.617-5.617-11.489-2.553"/>
				
					<line id="XMLID_163_" style="fill:none;stroke:#263238;stroke-linecap:round;stroke-linejoin:round;stroke-miterlimit:10;" x1="315.306" y1="238.217" x2="318.114" y2="241.025"/>
				<path id="XMLID_165_" style="fill:none;stroke:#263238;stroke-linecap:round;stroke-linejoin:round;stroke-miterlimit:10;" d="
					M343.391,228.77c0,0,7.565-8.82,18.638-0.511"/>
				<path id="XMLID_166_" style="fill:none;stroke:#263238;stroke-linecap:round;stroke-linejoin:round;stroke-miterlimit:10;" d="
					M328.072,228.515c0,0-6.894-5.362-13.787,0.766"/>
				<path id="XMLID_162_" style="fill:#263238;" d="M351.185,241.185c0,0.683-0.554,1.238-1.237,1.238
					c-0.683,0-1.237-0.554-1.237-1.238c0-0.683,0.554-1.237,1.237-1.237C350.631,239.948,351.185,240.502,351.185,241.185z"/>
				<path id="XMLID_168_" style="fill:#263238;" d="M322.017,240.124c0,0.684-0.554,1.237-1.237,1.237
					c-0.683,0-1.237-0.554-1.237-1.237c0-0.683,0.554-1.237,1.237-1.237C321.463,238.887,322.017,239.441,322.017,240.124z"/>
			</g>
		</g>
		<g>
			
				<path id="XMLID_169_" style="fill:#C6FF00;stroke:#263238;stroke-linecap:round;stroke-linejoin:round;stroke-miterlimit:10;" d="
				M382.329,215.219c0,0,0.884,11.491-1.237,20.153l3.359,1.061c0,0,2.652-13.258,1.414-20.683L382.329,215.219z"/>
			
				<path id="XMLID_170_" style="fill:#C6FF00;stroke:#263238;stroke-linecap:round;stroke-linejoin:round;stroke-miterlimit:10;" d="
				M359.494,181.611c0,0,11.667,5.127,15.733,18.208c4.066,13.082,3.536,17.148,6.01,18.562c2.475,1.414,7.248,2.298,7.425-0.884
				c0.177-3.182-0.934-17.372-7.955-26.163C375.351,184.627,363.913,181.788,359.494,181.611z"/>
			
				<path id="XMLID_175_" style="fill:#C6FF00;stroke:#263238;stroke-linecap:round;stroke-linejoin:round;stroke-miterlimit:10;" d="
				M383.73,232.838c-5.087-1.558-10.684,1.984-12.499,7.912c-1.676,5.471,0.46,11.053,4.797,13.107
				c-1.68,4.331-5.896,13.514-13.946,21.774c-0.985-0.173-2.212,0.102-3.318,0.844c-1.824,1.224-2.62,3.234-1.777,4.491
				c0.843,1.257,3.005,1.284,4.83,0.06c1.7-1.14,2.488-2.955,1.909-4.215c8.286-8.565,12.526-17.888,14.214-22.316
				c4.866,0.991,9.993-2.477,11.716-8.102C391.47,240.465,388.817,234.397,383.73,232.838z"/>
			<path style="fill:#C6FF00;stroke:#263238;stroke-linecap:round;stroke-linejoin:round;stroke-miterlimit:10;" d="
				M388.051,244.397c-0.859,3.787-4.271,6.242-7.621,5.482c-3.35-0.76-5.37-4.445-4.511-8.232c0.859-3.787,4.27-6.241,7.621-5.482
				C386.889,236.924,388.909,240.61,388.051,244.397z"/>
		</g>
		<g>
			<g id="XMLID_184_">
				
					<path id="XMLID_180_" style="fill:#FFFFFF;stroke:#263238;stroke-linecap:round;stroke-linejoin:round;stroke-miterlimit:10;" d="
					M387.071,306.77c0,0-4.95-12.375-6.01-14.673c-1.061-2.298,7.601-15.91,9.016-17.855c1.414-1.945,4.066-6.01,4.066-6.894
					s-10.076-10.784-12.198-12.374c-2.121-1.591-5.657,1.945-5.657,1.945s-9.193,12.198-9.193,13.612
					c0,1.414,4.419,5.834,4.419,5.834s-6.894,9.9-6.01,13.789c0.884,3.889,4.419,7.248,4.419,7.248l4.95,19.092L387.071,306.77z"/>
				<path id="XMLID_179_" style="fill:none;stroke:#263238;stroke-linecap:round;stroke-linejoin:round;stroke-miterlimit:10;" d="
					M371.515,276.364c0,0,6.01-4.773,5.48-6.187c-0.53-1.414-2.298-1.237-2.298-1.237"/>
				<path id="XMLID_181_" style="fill:none;stroke:#263238;stroke-linecap:round;stroke-linejoin:round;stroke-miterlimit:10;" d="
					M375.757,258.509c0.53,0,16.087,10.253,15.733,12.021s-1.414,3.712-1.414,3.712"/>
				<path id="XMLID_182_" style="fill:none;stroke:#263238;stroke-linecap:round;stroke-linejoin:round;stroke-miterlimit:10;" d="
					M377.525,256.918c0,0,14.673,9.193,15.026,10.784c0.353,1.591-1.061,2.828-1.061,2.828"/>
				<path id="XMLID_183_" style="fill:none;stroke:#263238;stroke-linecap:round;stroke-linejoin:round;stroke-miterlimit:10;" d="
					M379.116,255.327c0,0,15.38,10.43,15.026,12.021c-0.354,1.591-1.945,3.536-1.945,3.536"/>
			</g>
			
				<path id="XMLID_177_" style="fill:#263238;stroke:#263238;stroke-linecap:round;stroke-linejoin:round;stroke-miterlimit:10;" d="
				M389.193,305.356l-23.688,13.612c0,0,30.759,73.186,36.416,83.086c5.657,9.9,20.86,12.198,28.815,9.546
				c7.955-2.652,11.844-18.562,9.193-25.279c-2.652-6.718-21.744-36.063-30.936-50.735
				C399.799,320.912,389.193,305.356,389.193,305.356z"/>
			<path style="fill:none;stroke:#616161;stroke-linecap:round;stroke-linejoin:round;stroke-miterlimit:10;" d="M376.667,343.958
				c0,0,26,50,32.667,60"/>
			
				<line style="fill:none;stroke:#616161;stroke-linecap:round;stroke-linejoin:round;stroke-miterlimit:10;" x1="391.333" y1="311.292" x2="428" y2="367.292"/>
		</g>
	</g>
</g>
<g id="Text_Balloon">
	<g>
		<g id="XMLID_152_">
			
				<path id="XMLID_201_" style="fill:#FFFFFF;stroke:#263238;stroke-linecap:round;stroke-linejoin:round;stroke-miterlimit:10;" d="
				M287.345,238.865v-32.196c0-2.585-2.095-4.68-4.68-4.68h-78.501c-2.585,0-4.68,2.095-4.68,4.68v32.196
				c0,2.585,2.095,4.68,4.68,4.68h67.414l15.348,14.765l-3.064-14.939C285.863,242.839,287.345,241.033,287.345,238.865z"/>
			<g id="XMLID_194_">
				<circle id="XMLID_192_" style="fill:#263238;" cx="227.911" cy="222.133" r="3.514"/>
				<circle id="XMLID_197_" style="fill:#263238;" cx="243.415" cy="222.133" r="3.514"/>
				<circle id="XMLID_198_" style="fill:#263238;" cx="258.919" cy="222.133" r="3.514"/>
			</g>
		</g>
		<path id="XMLID_196_" style="fill:#263238;stroke:#263238;stroke-linecap:round;stroke-linejoin:round;stroke-miterlimit:10;" d="
			M212.226,238.117v-7.194l-7.569-1.688c-0.417-1.477-0.996-2.884-1.731-4.196l4.154-6.54l-5.087-5.087l-6.54,4.154
			c-1.312-0.735-2.719-1.314-4.196-1.731l-1.688-7.569h-7.194l-1.688,7.569c-1.477,0.417-2.884,0.996-4.196,1.731l-6.54-4.154
			l-5.087,5.087l4.154,6.54c-0.735,1.312-1.314,2.719-1.731,4.196l-7.569,1.688v7.194l7.569,1.688
			c0.417,1.477,0.996,2.884,1.731,4.196l-4.154,6.54l5.087,5.087l6.54-4.154c1.312,0.735,2.719,1.314,4.196,1.731l1.688,7.569h7.194
			l1.688-7.569c1.477-0.417,2.884-0.996,4.196-1.731l6.54,4.154l5.087-5.087l-4.154-6.54c0.735-1.312,1.314-2.719,1.731-4.196
			L212.226,238.117z M185.972,243.823c-5.138,0-9.303-4.165-9.303-9.303c0-5.138,4.165-9.303,9.303-9.303
			c5.138,0,9.303,4.165,9.303,9.303C195.274,239.658,191.109,243.823,185.972,243.823z"/>
	</g>
</g>
<g id="Device">
	<g>
		
			<rect x="148.772" y="420.565" transform="matrix(-1 -1.224647e-16 1.224647e-16 -1 462.9395 847.8032)" style="fill:#FFFFFF;stroke:#263238;stroke-linecap:round;stroke-linejoin:round;stroke-miterlimit:10;" width="165.396" height="6.674"/>
		
			<rect x="123.378" y="420.565" transform="matrix(-1 -1.224647e-16 1.224647e-16 -1 390.9108 847.8032)" style="fill:#FFFFFF;stroke:#263238;stroke-linecap:round;stroke-linejoin:round;stroke-miterlimit:10;" width="144.155" height="6.674"/>
		<polygon style="fill:#FFFFFF;stroke:#263238;stroke-linecap:round;stroke-linejoin:round;stroke-miterlimit:10;" points="
			120.575,408.701 258.495,408.701 243.626,303.407 105.706,303.407 		"/>
		<polygon style="fill:#263238;stroke:#263238;stroke-linecap:round;stroke-linejoin:round;stroke-miterlimit:10;" points="
			114.869,408.701 252.789,408.701 237.92,303.407 100,303.407 		"/>
		<path style="fill:#FFFFFF;stroke:#263238;stroke-linecap:round;stroke-linejoin:round;stroke-miterlimit:10;" d="M157.125,359.762
			l-13.836,67.477h35.593l13.836-67.477H157.125z M181.275,379.784c-0.136,0.569-0.647,0.968-1.232,0.962l-20.161-0.194
			c-0.807-0.008-1.396-0.763-1.208-1.547l1.818-7.574c0.136-0.568,0.647-0.968,1.232-0.962l20.161,0.194
			c0.807,0.008,1.396,0.764,1.208,1.548L181.275,379.784z"/>
	</g>
	
		<rect x="19.249" y="427.238" transform="matrix(-1 -1.224647e-16 1.224647e-16 -1 504.0018 859.3184)" style="fill:#263238;stroke:#263238;stroke-linecap:round;stroke-linejoin:round;stroke-miterlimit:10;" width="465.503" height="4.842"/>
</g>
<g id="Icons">
	<g>
		<polygon style="fill:none;stroke:#263238;stroke-linecap:round;stroke-linejoin:round;stroke-miterlimit:10;" points="
			352.857,107.527 349.924,99 320.387,99 323.061,149 391.721,149 391.721,107.527 		"/>
		<polyline style="fill:none;stroke:#263238;stroke-linecap:round;stroke-linejoin:round;stroke-miterlimit:10;" points="
			391.721,149 397.584,103.194 351.079,103.194 		"/>
	</g>
	<g>
		
			<ellipse transform="matrix(0.2284 -0.9736 0.9736 0.2284 1.8991 251.2382)" style="fill:none;stroke:#263238;stroke-linecap:round;stroke-linejoin:round;stroke-miterlimit:10;" cx="159.448" cy="124.421" rx="34.552" ry="34.552"/>
		
			<ellipse transform="matrix(0.2325 -0.9726 0.9726 0.2325 1.362 250.5679)" style="fill:none;stroke:#263238;stroke-linecap:round;stroke-linejoin:round;stroke-miterlimit:10;" cx="159.448" cy="124.421" rx="27.843" ry="27.843"/>
		<path style="fill:none;stroke:#263238;stroke-linecap:round;stroke-linejoin:round;stroke-miterlimit:10;" d="M163.138,124.421
			c0,2.038-1.652,3.69-3.69,3.69c-2.038,0-3.69-1.652-3.69-3.69c0-2.038,1.652-3.69,3.69-3.69
			C161.486,120.731,163.138,122.383,163.138,124.421z"/>
		<g>
			
				<line style="fill:none;stroke:#263238;stroke-linecap:round;stroke-linejoin:round;stroke-miterlimit:10;" x1="159.34" y1="98.672" x2="159.34" y2="105.556"/>
			
				<line style="fill:none;stroke:#263238;stroke-linecap:round;stroke-linejoin:round;stroke-miterlimit:10;" x1="159.34" y1="143.416" x2="159.34" y2="150.3"/>
		</g>
		<g>
			
				<line style="fill:none;stroke:#263238;stroke-linecap:round;stroke-linejoin:round;stroke-miterlimit:10;" x1="141.087" y1="106.233" x2="145.955" y2="111.1"/>
			
				<line style="fill:none;stroke:#263238;stroke-linecap:round;stroke-linejoin:round;stroke-miterlimit:10;" x1="172.726" y1="137.872" x2="177.593" y2="142.739"/>
		</g>
		<g>
			
				<line style="fill:none;stroke:#263238;stroke-linecap:round;stroke-linejoin:round;stroke-miterlimit:10;" x1="133.526" y1="124.486" x2="140.41" y2="124.486"/>
			
				<line style="fill:none;stroke:#263238;stroke-linecap:round;stroke-linejoin:round;stroke-miterlimit:10;" x1="178.27" y1="124.486" x2="185.154" y2="124.486"/>
		</g>
		<g>
			
				<line style="fill:none;stroke:#263238;stroke-linecap:round;stroke-linejoin:round;stroke-miterlimit:10;" x1="141.087" y1="142.739" x2="145.955" y2="137.872"/>
			
				<line style="fill:none;stroke:#263238;stroke-linecap:round;stroke-linejoin:round;stroke-miterlimit:10;" x1="172.726" y1="111.1" x2="177.593" y2="106.233"/>
		</g>
		
			<line style="fill:none;stroke:#263238;stroke-linecap:round;stroke-linejoin:round;stroke-miterlimit:10;" x1="155.758" y1="124.421" x2="145.573" y2="124.421"/>
		
			<line style="fill:none;stroke:#263238;stroke-linecap:round;stroke-linejoin:round;stroke-miterlimit:10;" x1="159.448" y1="120.731" x2="159.448" y2="107.277"/>
	</g>
	<g>
		<g>
			
				<rect x="215.746" y="99" style="fill:none;stroke:#263238;stroke-linecap:round;stroke-linejoin:round;stroke-miterlimit:10;" width="79.333" height="50.667"/>
			<polyline style="fill:none;stroke:#263238;stroke-linecap:round;stroke-linejoin:round;stroke-miterlimit:10;" points="
				215.746,99 255.413,124.333 295.079,99 			"/>
		</g>
		
			<line style="fill:none;stroke:#263238;stroke-linecap:round;stroke-linejoin:round;stroke-miterlimit:10;" x1="215.746" y1="149.667" x2="245.746" y2="122.333"/>
		
			<line style="fill:none;stroke:#263238;stroke-linecap:round;stroke-linejoin:round;stroke-miterlimit:10;" x1="294.7" y1="149.667" x2="264.7" y2="122.333"/>
	</g>
</g>
</svg>
